<svg width="20" height="20" viewBox="0 0 20 20" fill="none" xmlns="http://www.w3.org/2000/svg">
<path fill-rule="evenodd" clip-rule="evenodd" d="M8.43762 18.3333H11.5626C11.771 18.3333 11.9515 18.2639 12.1043 18.125C12.2571 17.9861 12.3473 17.8125 12.3751 17.6042L12.6251 15.6667C12.7918 15.5972 12.9585 15.5139 13.1251 15.4167C13.2918 15.3194 13.4515 15.2153 13.6043 15.1042L15.3751 15.8542C15.5696 15.9236 15.7675 15.9271 15.9689 15.8646C16.1703 15.8021 16.3265 15.6805 16.4376 15.5L17.9793 12.8333C18.0904 12.6528 18.1251 12.4583 18.0835 12.25C18.0418 12.0417 17.9376 11.875 17.771 11.75L16.2085 10.5625C16.2362 10.4653 16.2501 10.3715 16.2501 10.2812V9.71874C16.2501 9.62846 16.2432 9.53471 16.2293 9.43749L17.7918 8.24999C17.9585 8.12499 18.0626 7.95832 18.1043 7.74999C18.146 7.54166 18.1112 7.34721 18.0001 7.16666L16.4585 4.47916C16.3473 4.2986 16.1946 4.18055 16.0001 4.12499C15.8057 4.06943 15.6112 4.07638 15.4168 4.14582L13.6043 4.89582C13.4515 4.78471 13.2953 4.68055 13.1355 4.58332C12.9758 4.4861 12.8057 4.40277 12.6251 4.33332L12.3751 2.39582C12.3473 2.18749 12.2571 2.01388 12.1043 1.87499C11.9515 1.7361 11.771 1.66666 11.5626 1.66666H8.43762C8.22928 1.66666 8.04873 1.7361 7.89595 1.87499C7.74317 2.01388 7.6529 2.18749 7.62512 2.39582L7.37512 4.33332C7.20845 4.40277 7.04178 4.4861 6.87512 4.58332C6.70845 4.68055 6.54873 4.78471 6.39595 4.89582L4.58345 4.14582C4.38901 4.07638 4.19109 4.06596 3.9897 4.11457C3.78831 4.16318 3.63901 4.28471 3.54179 4.47916L2.00012 7.16666C1.88901 7.34721 1.85429 7.54166 1.89595 7.74999C1.93762 7.95832 2.04179 8.12499 2.20845 8.24999L3.77095 9.43749C3.75706 9.53471 3.75012 9.62846 3.75012 9.71874V10.2812C3.75012 10.3715 3.75706 10.4653 3.77095 10.5625L2.20845 11.75C2.04179 11.875 1.93762 12.0417 1.89595 12.25C1.85429 12.4583 1.88901 12.6528 2.00012 12.8333L3.54179 15.5208C3.6529 15.7014 3.80567 15.8194 4.00012 15.875C4.19456 15.9305 4.38901 15.9236 4.58345 15.8542L6.39595 15.1042C6.54873 15.2153 6.70498 15.3194 6.8647 15.4167C7.02442 15.5139 7.19456 15.5972 7.37512 15.6667L7.62512 17.6042C7.6529 17.8125 7.74317 17.9861 7.89595 18.125C8.04873 18.2639 8.22928 18.3333 8.43762 18.3333ZM12.1043 12.0625C11.5348 12.6319 10.8473 12.9167 10.0418 12.9167C9.22234 12.9167 8.53137 12.6319 7.96887 12.0625C7.40637 11.493 7.12512 10.8055 7.12512 9.99999C7.12512 9.19443 7.40637 8.50693 7.96887 7.93749C8.53137 7.36805 9.22234 7.08332 10.0418 7.08332C10.8473 7.08332 11.5348 7.36805 12.1043 7.93749C12.6737 8.50693 12.9585 9.19443 12.9585 9.99999C12.9585 10.8055 12.6737 11.493 12.1043 12.0625Z" fill="#222222"/>
</svg>
