<svg width="25" height="24" viewBox="0 0 25 24" fill="none" xmlns="http://www.w3.org/2000/svg">
<g id="bookmark-added">
<path id="Vector" d="M12.0412 18L7.8412 19.8C7.17453 20.0833 6.5412 20.0292 5.9412 19.6375C5.3412 19.2458 5.0412 18.6917 5.0412 17.975V5C5.0412 4.45 5.23703 3.97917 5.6287 3.5875C6.02037 3.19583 6.4912 3 7.0412 3H13.0412V5H7.0412V17.95L12.0412 15.8L17.0412 17.95V11H19.0412V17.975C19.0412 18.6917 18.7412 19.2458 18.1412 19.6375C17.5412 20.0292 16.9079 20.0833 16.2412 19.8L12.0412 18ZM17.8662 6.175L20.6912 3.35C20.8912 3.15 21.1287 3.05 21.4037 3.05C21.6787 3.05 21.9162 3.15 22.1162 3.35C22.3162 3.55 22.4162 3.7875 22.4162 4.0625C22.4162 4.3375 22.3162 4.575 22.1162 4.775L18.5662 8.3C18.3662 8.5 18.1329 8.6 17.8662 8.6C17.5995 8.6 17.3662 8.5 17.1662 8.3L15.7412 6.875C15.5579 6.69167 15.4662 6.4625 15.4662 6.1875C15.4662 5.9125 15.5579 5.675 15.7412 5.475C15.9412 5.275 16.1787 5.175 16.4537 5.175C16.7287 5.175 16.9662 5.275 17.1662 5.475L17.8662 6.175Z" fill="black"/>
</g>
</svg>
