<svg width="25" height="24" viewBox="0 0 25 24" fill="none" xmlns="http://www.w3.org/2000/svg">
<path d="M5.31726 22C4.76726 22 4.29643 21.8042 3.90476 21.4125C3.51309 21.0208 3.31726 20.55 3.31726 20V6C3.31726 5.45 3.51309 4.97917 3.90476 4.5875C4.29643 4.19583 4.76726 4 5.31726 4H6.31726V3C6.31726 2.71667 6.41309 2.47917 6.60476 2.2875C6.79643 2.09583 7.03393 2 7.31726 2C7.60059 2 7.83809 2.09583 8.02976 2.2875C8.22143 2.47917 8.31726 2.71667 8.31726 3V4H16.3173V3C16.3173 2.71667 16.4131 2.47917 16.6048 2.2875C16.7964 2.09583 17.0339 2 17.3173 2C17.6006 2 17.8381 2.09583 18.0298 2.2875C18.2214 2.47917 18.3173 2.71667 18.3173 3V4H19.3173C19.8673 4 20.3381 4.19583 20.7298 4.5875C21.1214 4.97917 21.3173 5.45 21.3173 6V20C21.3173 20.55 21.1214 21.0208 20.7298 21.4125C20.3381 21.8042 19.8673 22 19.3173 22H5.31726ZM5.31726 20H19.3173V10H5.31726V20ZM5.31726 8H19.3173V6H5.31726V8Z" fill="black"/>
</svg>
