<svg width="24" height="24" viewBox="0 0 24 24" fill="none" xmlns="http://www.w3.org/2000/svg">
<g id="Leading Icon">
<path id="Intersect" fill-rule="evenodd" clip-rule="evenodd" d="M12.9999 9V12.6L15.4999 15.1C15.6832 15.2833 15.7749 15.5167 15.7749 15.8C15.7749 16.0833 15.6832 16.3167 15.4999 16.5C15.3166 16.6833 15.0832 16.775 14.7999 16.775C14.5166 16.775 14.2832 16.6833 14.0999 16.5L11.2999 13.7C11.1999 13.6 11.1249 13.4875 11.0749 13.3625C11.0249 13.2375 10.9999 13.1083 10.9999 12.975V9C10.9999 8.71667 11.0957 8.47917 11.2874 8.2875C11.4791 8.09583 11.7166 8 11.9999 8C12.2832 8 12.5207 8.09583 12.7124 8.2875C12.9041 8.47917 12.9999 8.71667 12.9999 9ZM8.4874 21.2875C9.57907 21.7625 10.7499 22 11.9999 22C13.2499 22 14.4207 21.7625 15.5124 21.2875C16.6041 20.8125 17.5541 20.1708 18.3624 19.3625C19.1707 18.5542 19.8124 17.6042 20.2874 16.5125C20.7624 15.4208 20.9999 14.25 20.9999 13C20.9999 11.75 20.7624 10.5792 20.2874 9.4875C19.8124 8.39583 19.1707 7.44583 18.3624 6.6375C17.5541 5.82917 16.6041 5.1875 15.5124 4.7125C14.4207 4.2375 13.2499 4 11.9999 4C10.7499 4 9.57907 4.2375 8.4874 4.7125C7.39574 5.1875 6.44574 5.82917 5.6374 6.6375C4.82907 7.44583 4.1874 8.39583 3.7124 9.4875C3.2374 10.5792 2.9999 11.75 2.9999 13C2.9999 14.25 3.2374 15.4208 3.7124 16.5125C4.1874 17.6042 4.82907 18.5542 5.6374 19.3625C6.44574 20.1708 7.39574 20.8125 8.4874 21.2875ZM1.7749 6.6C1.7749 6.88333 1.86657 7.11667 2.0499 7.3C2.23324 7.48333 2.46657 7.575 2.7499 7.575C3.03324 7.575 3.26657 7.48333 3.4499 7.3L6.2999 4.45C6.48324 4.26667 6.5749 4.03333 6.5749 3.75C6.5749 3.46667 6.48324 3.23333 6.2999 3.05C6.11657 2.86667 5.88324 2.775 5.5999 2.775C5.31657 2.775 5.08324 2.86667 4.8999 3.05L2.0499 5.9C1.86657 6.08333 1.7749 6.31667 1.7749 6.6ZM21.2499 7.575C21.5332 7.575 21.7666 7.48333 21.9499 7.3C22.1332 7.11667 22.2249 6.88333 22.2249 6.6C22.2249 6.31667 22.1332 6.08333 21.9499 5.9L19.0999 3.05C18.9166 2.86667 18.6832 2.775 18.3999 2.775C18.1166 2.775 17.8832 2.86667 17.6999 3.05C17.5166 3.23333 17.4249 3.46667 17.4249 3.75C17.4249 4.03333 17.5166 4.26667 17.6999 4.45L20.5499 7.3C20.7332 7.48333 20.9666 7.575 21.2499 7.575ZM16.9624 17.9625C15.6041 19.3208 13.9499 20 11.9999 20C10.0499 20 8.39574 19.3208 7.0374 17.9625C5.67907 16.6042 4.9999 14.95 4.9999 13C4.9999 11.05 5.67907 9.39583 7.0374 8.0375C8.39574 6.67917 10.0499 6 11.9999 6C13.9499 6 15.6041 6.67917 16.9624 8.0375C18.3207 9.39583 18.9999 11.05 18.9999 13C18.9999 14.95 18.3207 16.6042 16.9624 17.9625Z" fill="#BEBEBE"/>
</g>
</svg>
