<svg width="19" height="20" viewBox="0 0 19 20" fill="none" xmlns="http://www.w3.org/2000/svg">
<g id="Edit">
<path id="Vector" d="M2.0412 17.125H3.4412L12.0662 8.5L10.6662 7.1L2.0412 15.725V17.125ZM16.3412 7.05L12.0912 2.85L13.4912 1.45C13.8745 1.06667 14.3454 0.875 14.9037 0.875C15.462 0.875 15.9329 1.06667 16.3162 1.45L17.7162 2.85C18.0995 3.23333 18.2995 3.69583 18.3162 4.2375C18.3329 4.77917 18.1495 5.24167 17.7662 5.625L16.3412 7.05ZM1.0412 19.125C0.757865 19.125 0.520365 19.0292 0.328699 18.8375C0.137032 18.6458 0.0411987 18.4083 0.0411987 18.125V15.3C0.0411987 15.1667 0.0661987 15.0375 0.116199 14.9125C0.166199 14.7875 0.241199 14.675 0.341199 14.575L10.6412 4.275L14.8912 8.525L4.5912 18.825C4.4912 18.925 4.3787 19 4.2537 19.05C4.1287 19.1 3.99953 19.125 3.8662 19.125H1.0412Z" fill="black"/>
</g>
</svg>
