<svg width="24" height="24" viewBox="0 0 24 24" fill="none" xmlns="http://www.w3.org/2000/svg">
<g id="Password">
<path id="Vector" d="M3 19C2.71667 19 2.47917 18.9042 2.2875 18.7125C2.09583 18.5208 2 18.2833 2 18C2 17.7167 2.09583 17.4792 2.2875 17.2875C2.47917 17.0958 2.71667 17 3 17H21C21.2833 17 21.5208 17.0958 21.7125 17.2875C21.9042 17.4792 22 17.7167 22 18C22 18.2833 21.9042 18.5208 21.7125 18.7125C21.5208 18.9042 21.2833 19 21 19H3ZM2.5 12.575C2.31667 12.475 2.2 12.325 2.15 12.125C2.1 11.925 2.125 11.7333 2.225 11.55L2.7 10.7H1.75C1.53333 10.7 1.35417 10.6292 1.2125 10.4875C1.07083 10.3458 1 10.1667 1 9.95C1 9.73333 1.07083 9.55417 1.2125 9.4125C1.35417 9.27083 1.53333 9.2 1.75 9.2H2.7L2.225 8.4C2.125 8.21667 2.1 8.025 2.15 7.825C2.2 7.625 2.31667 7.475 2.5 7.375C2.68333 7.275 2.875 7.25 3.075 7.3C3.275 7.35 3.425 7.46667 3.525 7.65L4 8.45L4.475 7.65C4.575 7.46667 4.725 7.35 4.925 7.3C5.125 7.25 5.31667 7.275 5.5 7.375C5.68333 7.475 5.8 7.625 5.85 7.825C5.9 8.025 5.875 8.21667 5.775 8.4L5.3 9.2H6.25C6.46667 9.2 6.64583 9.27083 6.7875 9.4125C6.92917 9.55417 7 9.73333 7 9.95C7 10.1667 6.92917 10.3458 6.7875 10.4875C6.64583 10.6292 6.46667 10.7 6.25 10.7H5.3L5.775 11.55C5.875 11.7333 5.9 11.925 5.85 12.125C5.8 12.325 5.68333 12.475 5.5 12.575C5.31667 12.675 5.125 12.7 4.925 12.65C4.725 12.6 4.575 12.4833 4.475 12.3L4 11.45L3.525 12.3C3.425 12.4833 3.275 12.6 3.075 12.65C2.875 12.7 2.68333 12.675 2.5 12.575ZM10.5 12.575C10.3167 12.475 10.2 12.325 10.15 12.125C10.1 11.925 10.125 11.7333 10.225 11.55L10.7 10.7H9.75C9.53333 10.7 9.35417 10.6292 9.2125 10.4875C9.07083 10.3458 9 10.1667 9 9.95C9 9.73333 9.07083 9.55417 9.2125 9.4125C9.35417 9.27083 9.53333 9.2 9.75 9.2H10.7L10.225 8.4C10.125 8.21667 10.1 8.025 10.15 7.825C10.2 7.625 10.3167 7.475 10.5 7.375C10.6833 7.275 10.875 7.25 11.075 7.3C11.275 7.35 11.425 7.46667 11.525 7.65L12 8.45L12.475 7.65C12.575 7.46667 12.725 7.35 12.925 7.3C13.125 7.25 13.3167 7.275 13.5 7.375C13.6833 7.475 13.8 7.625 13.85 7.825C13.9 8.025 13.875 8.21667 13.775 8.4L13.3 9.2H14.25C14.4667 9.2 14.6458 9.27083 14.7875 9.4125C14.9292 9.55417 15 9.73333 15 9.95C15 10.1667 14.9292 10.3458 14.7875 10.4875C14.6458 10.6292 14.4667 10.7 14.25 10.7H13.3L13.775 11.55C13.875 11.7333 13.9 11.925 13.85 12.125C13.8 12.325 13.6833 12.475 13.5 12.575C13.3167 12.675 13.125 12.7 12.925 12.65C12.725 12.6 12.575 12.4833 12.475 12.3L12 11.45L11.525 12.3C11.425 12.4833 11.275 12.6 11.075 12.65C10.875 12.7 10.6833 12.675 10.5 12.575ZM18.5 12.575C18.3167 12.475 18.2 12.325 18.15 12.125C18.1 11.925 18.125 11.7333 18.225 11.55L18.7 10.7H17.75C17.5333 10.7 17.3542 10.6292 17.2125 10.4875C17.0708 10.3458 17 10.1667 17 9.95C17 9.73333 17.0708 9.55417 17.2125 9.4125C17.3542 9.27083 17.5333 9.2 17.75 9.2H18.7L18.225 8.4C18.125 8.21667 18.1 8.025 18.15 7.825C18.2 7.625 18.3167 7.475 18.5 7.375C18.6833 7.275 18.875 7.25 19.075 7.3C19.275 7.35 19.425 7.46667 19.525 7.65L20 8.45L20.475 7.65C20.575 7.46667 20.725 7.35 20.925 7.3C21.125 7.25 21.3167 7.275 21.5 7.375C21.6833 7.475 21.8 7.625 21.85 7.825C21.9 8.025 21.875 8.21667 21.775 8.4L21.3 9.2H22.25C22.4667 9.2 22.6458 9.27083 22.7875 9.4125C22.9292 9.55417 23 9.73333 23 9.95C23 10.1667 22.9292 10.3458 22.7875 10.4875C22.6458 10.6292 22.4667 10.7 22.25 10.7H21.3L21.775 11.55C21.875 11.7333 21.9 11.925 21.85 12.125C21.8 12.325 21.6833 12.475 21.5 12.575C21.3167 12.675 21.125 12.7 20.925 12.65C20.725 12.6 20.575 12.4833 20.475 12.3L20 11.45L19.525 12.3C19.425 12.4833 19.275 12.6 19.075 12.65C18.875 12.7 18.6833 12.675 18.5 12.575Z" fill="black"/>
</g>
</svg>
