<svg width="24" height="24" viewBox="0 0 24 24" fill="none" xmlns="http://www.w3.org/2000/svg">
<g id="Icon">
<path id="Intersect" fill-rule="evenodd" clip-rule="evenodd" d="M8.7 15.5625C7.65 15.9375 6.7 16.45 5.85 17.1C5.26667 16.4167 4.8125 15.6417 4.4875 14.775C4.1625 13.9083 4 12.9833 4 12C4 9.78333 4.77917 7.89583 6.3375 6.3375C7.89583 4.77917 9.78333 4 12 4C14.2167 4 16.1042 4.77917 17.6625 6.3375C19.2208 7.89583 20 9.78333 20 12C20 12.9833 19.8375 13.9083 19.5125 14.775C19.1875 15.6417 18.7333 16.4167 18.15 17.1C17.3 16.45 16.35 15.9375 15.3 15.5625C14.25 15.1875 13.15 15 12 15C10.85 15 9.75 15.1875 8.7 15.5625ZM9.5125 11.9875C10.1875 12.6625 11.0167 13 12 13C12.9833 13 13.8125 12.6625 14.4875 11.9875C15.1625 11.3125 15.5 10.4833 15.5 9.5C15.5 8.51667 15.1625 7.6875 14.4875 7.0125C13.8125 6.3375 12.9833 6 12 6C11.0167 6 10.1875 6.3375 9.5125 7.0125C8.8375 7.6875 8.5 8.51667 8.5 9.5C8.5 10.4833 8.8375 11.3125 9.5125 11.9875ZM8.1 21.2125C9.31667 21.7375 10.6167 22 12 22C13.3833 22 14.6833 21.7375 15.9 21.2125C17.1167 20.6875 18.175 19.975 19.075 19.075C19.975 18.175 20.6875 17.1167 21.2125 15.9C21.7375 14.6833 22 13.3833 22 12C22 10.6167 21.7375 9.31667 21.2125 8.1C20.6875 6.88333 19.975 5.825 19.075 4.925C18.175 4.025 17.1167 3.3125 15.9 2.7875C14.6833 2.2625 13.3833 2 12 2C10.6167 2 9.31667 2.2625 8.1 2.7875C6.88333 3.3125 5.825 4.025 4.925 4.925C4.025 5.825 3.3125 6.88333 2.7875 8.1C2.2625 9.31667 2 10.6167 2 12C2 13.3833 2.2625 14.6833 2.7875 15.9C3.3125 17.1167 4.025 18.175 4.925 19.075C5.825 19.975 6.88333 20.6875 8.1 21.2125Z" fill="#222222"/>
</g>
</svg>
