<svg width="25" height="24" viewBox="0 0 25 24" fill="none" xmlns="http://www.w3.org/2000/svg">
<g id="bookmark-add">
<path id="Vector" d="M12.0412 18L7.8412 19.8C7.17453 20.0833 6.5412 20.0292 5.9412 19.6375C5.3412 19.2458 5.0412 18.6917 5.0412 17.975V5C5.0412 4.45 5.23703 3.97917 5.6287 3.5875C6.02037 3.19583 6.4912 3 7.0412 3H13.0412V5H7.0412V17.95L12.0412 15.8L17.0412 17.95V11H19.0412V17.975C19.0412 18.6917 18.7412 19.2458 18.1412 19.6375C17.5412 20.0292 16.9079 20.0833 16.2412 19.8L12.0412 18ZM17.0412 7H16.0412C15.7579 7 15.5204 6.90417 15.3287 6.7125C15.137 6.52083 15.0412 6.28333 15.0412 6C15.0412 5.71667 15.137 5.47917 15.3287 5.2875C15.5204 5.09583 15.7579 5 16.0412 5H17.0412V4C17.0412 3.71667 17.137 3.47917 17.3287 3.2875C17.5204 3.09583 17.7579 3 18.0412 3C18.3245 3 18.562 3.09583 18.7537 3.2875C18.9454 3.47917 19.0412 3.71667 19.0412 4V5H20.0412C20.3245 5 20.562 5.09583 20.7537 5.2875C20.9454 5.47917 21.0412 5.71667 21.0412 6C21.0412 6.28333 20.9454 6.52083 20.7537 6.7125C20.562 6.90417 20.3245 7 20.0412 7H19.0412V8C19.0412 8.28333 18.9454 8.52083 18.7537 8.7125C18.562 8.90417 18.3245 9 18.0412 9C17.7579 9 17.5204 8.90417 17.3287 8.7125C17.137 8.52083 17.0412 8.28333 17.0412 8V7Z" fill="black"/>
</g>
</svg>
