<svg width="25" height="24" viewBox="0 0 25 24" fill="none" xmlns="http://www.w3.org/2000/svg">
<g id="Delete">
<path id="Vector" d="M7.31726 21C6.76726 21 6.29643 20.8042 5.90476 20.4125C5.51309 20.0208 5.31726 19.55 5.31726 19V6C5.03393 6 4.79643 5.90417 4.60476 5.7125C4.41309 5.52083 4.31726 5.28333 4.31726 5C4.31726 4.71667 4.41309 4.47917 4.60476 4.2875C4.79643 4.09583 5.03393 4 5.31726 4H9.31726C9.31726 3.71667 9.41309 3.47917 9.60476 3.2875C9.79643 3.09583 10.0339 3 10.3173 3H14.3173C14.6006 3 14.8381 3.09583 15.0298 3.2875C15.2214 3.47917 15.3173 3.71667 15.3173 4H19.3173C19.6006 4 19.8381 4.09583 20.0298 4.2875C20.2214 4.47917 20.3173 4.71667 20.3173 5C20.3173 5.28333 20.2214 5.52083 20.0298 5.7125C19.8381 5.90417 19.6006 6 19.3173 6V19C19.3173 19.55 19.1214 20.0208 18.7298 20.4125C18.3381 20.8042 17.8673 21 17.3173 21H7.31726ZM17.3173 6H7.31726V19H17.3173V6ZM9.31726 17H11.3173V8H9.31726V17ZM13.3173 17H15.3173V8H13.3173V17Z" fill="black"/>
</g>
</svg>
