<svg width="21" height="20" viewBox="0 0 21 20" fill="none" xmlns="http://www.w3.org/2000/svg">
<g id="Icon">
<path id="Intersect" fill-rule="evenodd" clip-rule="evenodd" d="M13.4378 10.5208L9.37533 13.125C9.16699 13.2638 8.95519 13.2743 8.73991 13.1562C8.52463 13.0382 8.41699 12.8541 8.41699 12.6041V7.39579C8.41699 7.14579 8.52463 6.96177 8.73991 6.84371C8.95519 6.72565 9.16699 6.73607 9.37533 6.87496L13.4378 9.47913C13.6323 9.60413 13.7295 9.77774 13.7295 9.99996C13.7295 10.2222 13.6323 10.3958 13.4378 10.5208ZM7.25033 17.677C8.26421 18.1145 9.34755 18.3333 10.5003 18.3333C11.6531 18.3333 12.7364 18.1145 13.7503 17.677C14.7642 17.2395 15.6462 16.6458 16.3962 15.8958C17.1462 15.1458 17.7399 14.2638 18.1774 13.25C18.6149 12.2361 18.8337 11.1527 18.8337 9.99996C18.8337 8.84718 18.6149 7.76385 18.1774 6.74996C17.7399 5.73607 17.1462 4.85413 16.3962 4.10413C15.6462 3.35413 14.7642 2.76038 13.7503 2.32288C12.7364 1.88538 11.6531 1.66663 10.5003 1.66663C9.34755 1.66663 8.26421 1.88538 7.25033 2.32288C6.23644 2.76038 5.35449 3.35413 4.60449 4.10413C3.85449 4.85413 3.26074 5.73607 2.82324 6.74996C2.38574 7.76385 2.16699 8.84718 2.16699 9.99996C2.16699 11.1527 2.38574 12.2361 2.82324 13.25C3.26074 14.2638 3.85449 15.1458 4.60449 15.8958C5.35449 16.6458 6.23644 17.2395 7.25033 17.677Z" fill="white"/>
</g>
</svg>
